<svg xmlns="http://www.w3.org/2000/svg" viewBox="0 0 48 32" width="48" height="32">
  <rect width="48" height="32" rx="4" fill="#006FCF"/>
  <path d="M7 12h3.2l.7 1.6.7-1.6H15l-2 2.3 2 2.2h-3.3l-.7-1.6-.7 1.6H7l2-2.2L7 12zm12.5 0h5l.8 1.2.8-1.2h1.4l-1.6 2.3 1.6 2.2h-1.4l-.8-1.2-.8 1.2h-5v-4.5zm1.5 1.2v.6h2.5v.9H21v.6h3v1.2h-4.5v-4.5h4.5v1.2H21zm9.5-1.2h1.8l1.8 2.7v-2.7h1.5v4.5h-1.8l-1.8-2.7v2.7h-1.5V12zm-23 8h3.2l.7 1.6.7-1.6H15l-2 2.3 2 2.2h-3.3l-.7-1.6-.7 1.6H7l2-2.2L7 20zm12.5 0h5l.8 1.2.8-1.2h1.4l-1.6 2.3 1.6 2.2h-1.4l-.8-1.2-.8 1.2h-5v-4.5zm1.5 1.2v.6h2.5v.9H21v.6h3v1.2h-4.5v-4.5h4.5v1.2H21z" fill="#fff"/>
</svg>
