<svg xmlns="http://www.w3.org/2000/svg" viewBox="0 0 48 32" width="48" height="32">
  <rect width="48" height="32" rx="4" fill="#1A1F71"/>
  <path d="M19.5 21h-2.7l1.7-10.5h2.7L19.5 21zm-5.1 0h-2.8l-2.2-8.4-.5 2.4-.9 4.4c-.1.6-.5 1.1-1 1.3-.3.1-.6.2-1 .2H3l-.1-.4c.9-.2 1.9-.5 2.5-.9l2.1 8h2.9l4.4-10.5h-2.9L14.4 21zm21.3-6.8c0-.8.7-1.2 1.8-1.2.8 0 1.7.2 2.5.5l.4-2.3c-.8-.3-1.9-.5-2.9-.5-3 0-5.1 1.6-5.1 3.9 0 1.7 1.5 2.6 2.7 3.2 1.2.6 1.6 1 1.6 1.5 0 .8-.9 1.2-1.8 1.2-1.1 0-2.1-.2-3-.6l-.4 2.4c.9.3 2 .5 3.2.5 3.2 0 5.3-1.6 5.3-4 0-3.1-4.3-3.3-4.3-4.6zm12.4 6.8h2.5l-2.2-10.5h-2.2c-.7 0-1.3.4-1.5 1l-4.4 9.5h2.9l.6-1.6h3.6l.3 1.6h.4zm-3.1-3.9l1.5-4.1.9 4.1h-2.4z" fill="#fff"/>
</svg>
