<svg width="1501" height="1008" viewBox="0 0 1501 1008" fill="none" xmlns="http://www.w3.org/2000/svg">
<g clip-path="url(#clip0_3_5247)">
<g filter="url(#filter0_f_3_5247)">
<path d="M945.305 387.419C945.305 543.089 820.564 669.289 666.69 669.289C512.81 669.289 105.228 543.089 105.228 387.419C105.228 231.747 512.81 105.551 666.69 105.551C820.564 105.551 945.305 231.747 945.305 387.419Z" fill="#FFD7FF"/>
<path d="M945.305 387.419C945.305 543.089 820.564 669.289 666.69 669.289C512.81 669.289 105.228 543.089 105.228 387.419C105.228 231.747 512.81 105.551 666.69 105.551C820.564 105.551 945.305 231.747 945.305 387.419Z" fill="white" fill-opacity="0.02"/>
</g>
</g>
<defs>
<filter id="filter0_f_3_5247" x="0.000114441" y="0.323112" width="1050.53" height="774.193" filterUnits="userSpaceOnUse" color-interpolation-filters="sRGB">
<feFlood flood-opacity="0" result="BackgroundImageFix"/>
<feBlend mode="normal" in="SourceGraphic" in2="BackgroundImageFix" result="shape"/>
<feGaussianBlur stdDeviation="52.6137" result="effect1_foregroundBlur_3_5247"/>
</filter>
<clipPath id="clip0_3_5247">
<rect width="1050.7" height="775" fill="white"/>
</clipPath>
</defs>
</svg>
