<svg fill="currentColor" xmlns="http://www.w3.org/2000/svg" viewBox="0 0 32 32"><path fill-rule="evenodd" d="M13.488 26.603c.6.404 1.102.719 1.455.934.176.107.465.275.563.332.304.17.68.173.984.003.102-.06.394-.23.567-.335a40.466 40.466 0 0 0 5.862-4.356C26.072 20.343 29.5 16.21 29.5 11.5A7.5 7.5 0 0 0 16 7a7.5 7.5 0 0 0-13.5 4.5c0 4.71 3.428 8.843 6.581 11.68a40.5 40.5 0 0 0 4.407 3.423m-.903-19.958A5.5 5.5 0 0 0 4.5 11.5c0 3.79 2.822 7.407 5.919 10.194A38.5 38.5 0 0 0 16 25.84a38.466 38.466 0 0 0 5.581-4.145C24.678 18.907 27.5 15.29 27.5 11.5a5.5 5.5 0 0 0-10.577-2.115 1 1 0 0 1-1.846 0 5.5 5.5 0 0 0-2.492-2.74" clip-rule="evenodd"></path></svg>