<svg fill="currentColor" xmlns="http://www.w3.org/2000/svg" viewBox="0 0 32 32"><path fill-rule="evenodd" d="M16 4a4 4 0 0 0-3.193 1.59l-.013.018A4 4 0 0 0 12 8h8a4 4 0 0 0-.794-2.392l-.013-.017A4 4 0 0 0 16 4m4.472 0a6 6 0 0 0-8.944 0H7a2 2 0 0 0-2 2v21a2 2 0 0 0 2 2h18a2 2 0 0 0 2-2V6a2 2 0 0 0-2-2zm1.185 2c.225.636.343 1.312.343 2v1a1 1 0 0 1-1 1H11a1 1 0 0 1-1-1V8c0-.688.118-1.364.343-2H7v21h18V6zM11 15a1 1 0 0 1 1-1h8a1 1 0 1 1 0 2h-8a1 1 0 0 1-1-1m0 4a1 1 0 0 1 1-1h8a1 1 0 1 1 0 2h-8a1 1 0 0 1-1-1" clip-rule="evenodd"></path></svg>