<svg fill="currentColor" xmlns="http://www.w3.org/2000/svg" viewBox="0 0 32 32"><path fill-rule="evenodd" d="M19.429 3.457C24.944 4.96 29 10.007 29 16c0 2.022-.462 3.937-1.285 5.643a1 1 0 0 1-.088.18l-.006.01c-2.084 4.144-6.319 7.02-11.238 7.161a1 1 0 0 1-.169.004L16 29C8.82 29 3 23.18 3 16S8.82 3 16 3c1.105 0 2.177.138 3.201.397q.117.017.227.06M5 16c0-1.786.426-3.473 1.181-4.965l1.305 3.471a1.99 1.99 0 0 0 1.454 1.272l2.675.574.471.981.009.018a2.03 2.03 0 0 0 1.778 1.111h.163l-.96 2.154a2 2 0 0 0 .35 2.173l2.352 2.544-.322 1.654C9.633 26.703 5 21.893 5 16m2.923-6.016L8.956 7.55A10.96 10.96 0 0 1 16 5c.826 0 1.63.091 2.404.264l.944 1.709-3.356 3.035-1.55.854h-2.655a2.012 2.012 0 0 0-1.844 1.218l-.651 1.547zm4.107 4.412-.818-.176.58-1.358h2.697c.303 0 .634-.091.917-.241l1.552-.858a2 2 0 0 0 .383-.279l3.365-3.04a2.01 2.01 0 0 0 .536-2.117A11 11 0 0 1 27 16c0 1.35-.244 2.645-.689 3.84l-5.792-3.563a1.9 1.9 0 0 0-.794-.282l-2.85-.386a1.98 1.98 0 0 0-1.915.853l-1.071-.003-.473-.975a1.99 1.99 0 0 0-1.386-1.088m13.409 7.256a11 11 0 0 1-7.927 5.245l.232-1.179a2.025 2.025 0 0 0-.491-1.741l-2.354-2.54 1.715-3.845 2.853.387z" clip-rule="evenodd"></path></svg>