<svg fill="currentColor" xmlns="http://www.w3.org/2000/svg" viewBox="0 0 32 32"><path fill-rule="evenodd" d="M15.408 14.822a1 1 0 0 0-1 1v3.637l-.068.104a7.5 7.5 0 0 0-.586 1.103c-.418.964-.819 2.374-.819 4.222 0 1.844.4 3.38.8 4.456.2.54.401.967.556 1.264a8 8 0 0 0 .269.476l.006.01.002.003.002.002c.184.284.5.455.838.455h11.786c.338 0 .654-.171.838-.455v-.001l.002-.001.002-.004.006-.01a2 2 0 0 0 .077-.127q.074-.124.192-.348c.155-.297.356-.724.556-1.264.4-1.076.8-2.612.8-4.456 0-1.848-.402-3.258-.82-4.222a7.5 7.5 0 0 0-.654-1.206v-3.638a1 1 0 0 0-1-1zm1 3.967h9.785v-1.967h-9.785zm-.476 2c-.1.166-.22.39-.343.672-.319.736-.654 1.876-.654 3.427 0 1.556.338 2.854.674 3.76.14.374.277.68.39.906h10.604c.112-.226.25-.532.39-.906.336-.906.674-2.204.674-3.76 0-1.55-.336-2.69-.655-3.427a6 6 0 0 0-.342-.672z" clip-rule="evenodd"></path><path d="M21.716 18.581H19.71zM16.792 18.582h-2zM11.563 23.026a4 4 0 0 1-.375-.547c-.57-.977-.986-2.457-.986-4.201s.417-3.224.986-4.2c.598-1.026 1.131-1.166 1.31-1.166.118 0 .383.06.719.381h2.445c-.785-1.463-1.912-2.38-3.163-2.38-2.373 0-4.297 3.297-4.297 7.365 0 3.417 1.357 6.29 3.198 7.123v-.02c0-.868.062-1.653.163-2.355"></path><path fill-rule="evenodd" d="M7.563 1.103a1 1 0 0 1 .743-.33h8.314a1 1 0 0 1 .994 1.103l-.417 4.018c.304.238.721.584 1.188 1.03.933.893 2.091 2.211 2.926 3.882.278.555.415 1.297.49 2.061q.02.207.034.426H19.83l-.02-.233c-.07-.71-.181-1.148-.287-1.36-.7-1.398-1.69-2.535-2.521-3.33a14 14 0 0 0-1.203-1.027H9.05q-.09.06-.211.147c-.282.202-.672.504-1.098.894-.861.79-1.819 1.898-2.356 3.24-.092.231-.181.69-.23 1.408a27 27 0 0 0-.025 2.502c.057 1.918.246 4.206.475 6.417a200 200 0 0 0 .944 7.603h5.337c.188.794.406 1.468.604 2H5.686a1 1 0 0 1-.99-.85l-.006-.049-.097-.662a201.766 201.766 0 0 1-.976-7.835c-.231-2.231-.426-4.576-.485-6.565-.029-.994-.025-1.915.029-2.698.051-.756.154-1.477.369-2.013.69-1.727 1.881-3.074 2.86-3.972A14 14 0 0 1 7.72 5.83l-.409-3.955a1 1 0 0 1 .252-.773m7.947 1.67-.267 2.57H9.681l-.266-2.57z" clip-rule="evenodd"></path></svg>