<svg fill="currentColor" xmlns="http://www.w3.org/2000/svg" viewBox="0 0 32 32"><path fill-rule="evenodd" d="M7 4a1 1 0 0 1 1 1v11h2a1 1 0 1 1 0 2H4a1 1 0 1 1 0-2h2V5a1 1 0 0 1 1-1m9 0a1 1 0 0 1 1 1v5h2a1 1 0 1 1 0 2h-6a1 1 0 1 1 0-2h2V5a1 1 0 0 1 1-1m9 0a1 1 0 0 1 1 1v15h2a1 1 0 1 1 0 2h-6a1 1 0 1 1 0-2h2V5a1 1 0 0 1 1-1m-9 10a1 1 0 0 1 1 1v12a1 1 0 1 1-2 0V15a1 1 0 0 1 1-1m-9 6a1 1 0 0 1 1 1v6a1 1 0 1 1-2 0v-6a1 1 0 0 1 1-1m18 4a1 1 0 0 1 1 1v2a1 1 0 1 1-2 0v-2a1 1 0 0 1 1-1" clip-rule="evenodd"></path></svg>