<svg xmlns="http://www.w3.org/2000/svg" fill="none" viewBox="0 0 28 36"><g clip-path="url(#DS-illustration-map-pin-light__a)"><path fill="#0D1619" stroke="#fff" stroke-linecap="round" stroke-linejoin="round" stroke-width="2" d="M14 1c3.503 0 6.535.952 9.293 3.707C26.11 7.521 27 10.702 27 14.291c0 4.781-2.69 9.832-6.79 15.095-1.723 2.213-3.356 3.849-4.944 5.156l-.004.003a1.975 1.975 0 0 1-2.524 0l-.004-.003c-1.588-1.307-3.22-2.943-4.945-5.156C3.69 24.123 1 19.072 1 14.29c0-3.589.89-6.77 3.707-9.584C7.464 1.953 10.497 1 14 1"/></g><defs><clipPath id="DS-illustration-map-pin-light__a"><path fill="#fff" d="M0 0h28v36H0z"/></clipPath></defs></svg>