<svg xmlns="http://www.w3.org/2000/svg" fill="none" viewBox="0 0 32 32"><rect width="31" height="23" x=".5" y="4.5" stroke="#E5E5E5" rx="3.5"/><path fill="#BFBFBF" d="M23.5 9.75h-15A1.25 1.25 0 0 0 7.25 11v10a1.25 1.25 0 0 0 1.25 1.25h15A1.25 1.25 0 0 0 24.75 21V11a1.25 1.25 0 0 0-1.25-1.25m0 1.25v1.875h-15V11zm0 10h-15v-6.875h15zm-1.25-1.875a.624.624 0 0 1-.625.625h-2.5a.624.624 0 1 1 0-1.25h2.5a.624.624 0 0 1 .625.625m-5 0a.624.624 0 0 1-.625.625h-1.25a.624.624 0 1 1 0-1.25h1.25a.624.624 0 0 1 .625.625"/></svg>