<svg xmlns="http://www.w3.org/2000/svg" fill="none" viewBox="0 0 32 32"><rect width="31" height="23" x=".5" y="4.5" stroke="#E5E5E5" rx="3.5"/><path fill="#1A1876" d="M12.455 19.496h1.942l1.216-6.976H13.67zM19.53 15.32c-.678-.322-1.094-.537-1.09-.864 0-.291.352-.6 1.117-.6a3.6 3.6 0 0 1 1.628.347l.264-1.511a5.1 5.1 0 0 0-1.742-.292c-1.92 0-3.276.947-3.284 2.302-.01 1.003.968 1.562 1.702 1.895.757.341 1.011.56 1.008.864-.006.468-.604.682-1.163.682a4.3 4.3 0 0 1-2.08-.477l-.272 1.561c.693.251 1.426.377 2.164.373 2.043 0 3.369-.936 3.384-2.383.003-.794-.514-1.398-1.635-1.896M26.427 12.526h-1.501a1 1 0 0 0-.61.12.95.95 0 0 0-.408.459l-2.885 6.391h2.04s.334-.86.409-1.048h2.488c.058.245.237 1.046.237 1.046H28zm-2.395 4.498c.08-.202.873-2.195 1.031-2.617.262 1.203.007.036.58 2.617zM10.826 12.525l-1.903 4.757-.203-.966-.68-3.206a.8.8 0 0 0-.329-.456.83.83 0 0 0-.553-.134H4.025L4 12.666a8.3 8.3 0 0 1 2.041.766l1.727 6.06h2.056l3.06-6.964z"/></svg>