<svg xmlns="http://www.w3.org/2000/svg" fill="none" viewBox="0 0 24 24"><path fill="#004C97" fill-rule="evenodd" d="M10.719 20.591C5.936 20.613 2 16.763 2 12.075c0-5.123 3.936-8.667 8.719-8.666h2.242C17.686 3.408 22 6.949 22 12.075c0 4.685-4.314 8.516-9.04 8.516z" clip-rule="evenodd"/><path fill="#FEFEFE" fill-rule="evenodd" d="M2.827 11.984c0-4.344 3.541-7.864 7.912-7.865 4.37 0 7.912 3.52 7.914 7.865-.002 4.343-3.543 7.863-7.914 7.863s-7.912-3.52-7.912-7.863m6.115-4.652v9.303a4.99 4.99 0 0 1-3.22-4.65 4.995 4.995 0 0 1 3.22-4.653m3.59 0a4.99 4.99 0 0 1 3.223 4.653 4.99 4.99 0 0 1-3.222 4.652z" clip-rule="evenodd"/></svg>